<svg width="512" height="512" viewBox="0 0 512 512" fill="none" xmlns="http://www.w3.org/2000/svg">
<rect width="512" height="512" fill="#1A2630"/>
<path d="M468.126 238.326C485.917 176.217 415.001 169.967 377.32 174.606V179V214.888L415.31 219.283V296.918L377.32 318.158V362.103C387.203 360.394 413.457 352.435 439.402 334.271C471.832 311.567 468.126 303.51 468.126 238.326Z" fill="white"/>
<path d="M376.271 378.194H112.964C104.187 428.514 128.324 441.582 141.489 441.826C198.539 443.045 319.952 444.752 349.209 441.826C378.465 438.9 379.44 398.185 376.271 378.194Z" fill="white"/>
<path d="M200.36 276.385C200.36 279.919 199.685 283.235 198.335 286.333C196.984 289.431 195.138 292.151 192.795 294.494C190.491 296.798 187.791 298.624 184.693 299.975C181.595 301.325 178.279 302 174.745 302H132.033V216.576H174.745C178.279 216.576 181.595 217.251 184.693 218.602C187.791 219.952 190.491 221.799 192.795 224.142C195.138 226.445 196.984 229.146 198.335 232.243C199.685 235.341 200.36 238.657 200.36 242.191C200.36 243.78 200.142 245.408 199.705 247.076C199.268 248.744 198.652 250.353 197.858 251.901C197.064 253.45 196.111 254.86 194.999 256.131C193.887 257.402 192.656 258.454 191.305 259.288C192.695 260.043 193.946 261.075 195.058 262.386C196.17 263.657 197.123 265.066 197.918 266.615C198.712 268.164 199.308 269.792 199.705 271.5C200.142 273.168 200.36 274.796 200.36 276.385ZM149.13 284.903H174.745C175.936 284.903 177.048 284.685 178.081 284.248C179.113 283.811 180.007 283.215 180.761 282.461C181.556 281.667 182.171 280.753 182.608 279.721C183.045 278.688 183.263 277.576 183.263 276.385C183.263 275.193 183.045 274.081 182.608 273.049C182.171 272.016 181.556 271.123 180.761 270.368C180.007 269.574 179.113 268.958 178.081 268.521C177.048 268.085 175.936 267.866 174.745 267.866H149.13V284.903ZM149.13 250.77H174.745C175.936 250.77 177.048 250.551 178.081 250.114C179.113 249.677 180.007 249.082 180.761 248.327C181.556 247.533 182.171 246.619 182.608 245.587C183.045 244.515 183.263 243.383 183.263 242.191C183.263 241 183.045 239.888 182.608 238.855C182.171 237.823 181.556 236.929 180.761 236.175C180.007 235.381 179.113 234.765 178.081 234.328C177.048 233.891 175.936 233.673 174.745 233.673H149.13V250.77ZM262.344 267.866V250.77C262.344 248.426 261.887 246.222 260.974 244.157C260.1 242.052 258.889 240.226 257.34 238.677C255.791 237.128 253.965 235.917 251.86 235.043C249.795 234.13 247.591 233.673 245.247 233.673C242.904 233.673 240.68 234.13 238.576 235.043C236.511 235.917 234.704 237.128 233.155 238.677C231.606 240.226 230.375 242.052 229.461 244.157C228.588 246.222 228.151 248.426 228.151 250.77V267.866H262.344ZM279.441 302H262.344V284.903H228.151V302H211.114V250.77C211.114 246.044 212.007 241.616 213.794 237.485C215.581 233.315 218.004 229.682 221.062 226.584C224.16 223.486 227.774 221.044 231.904 219.257C236.074 217.47 240.522 216.576 245.247 216.576C249.973 216.576 254.401 217.47 258.532 219.257C262.702 221.044 266.335 223.486 269.433 226.584C272.531 229.682 274.973 233.315 276.76 237.485C278.547 241.616 279.441 246.044 279.441 250.77V302ZM310.151 233.673V267.866H327.247C329.59 267.866 331.794 267.429 333.86 266.556C335.925 265.642 337.732 264.411 339.28 262.862C340.829 261.313 342.041 259.507 342.914 257.441C343.828 255.337 344.284 253.113 344.284 250.77C344.284 248.426 343.828 246.222 342.914 244.157C342.041 242.052 340.829 240.226 339.28 238.677C337.732 237.128 335.925 235.917 333.86 235.043C331.794 234.13 329.59 233.673 327.247 233.673H310.151ZM310.151 302H293.054V216.576H327.247C330.385 216.576 333.403 216.993 336.302 217.827C339.201 218.621 341.902 219.773 344.403 221.282C346.945 222.752 349.249 224.539 351.314 226.644C353.418 228.709 355.206 231.012 356.675 233.554C358.184 236.095 359.336 238.816 360.13 241.715C360.964 244.614 361.381 247.632 361.381 250.77C361.381 253.708 361.004 256.568 360.249 259.348C359.534 262.128 358.482 264.769 357.092 267.271C355.742 269.772 354.074 272.076 352.088 274.181C350.102 276.285 347.878 278.112 345.416 279.661L354.888 302H336.719L329.273 284.784L310.151 284.903V302Z" fill="white"/>
<path d="M377.683 146.913H117.303C106.575 127.653 101.726 75.8302 169.6 62.9574C254.443 46.8665 265.047 102.297 300.154 89.132C335.262 75.9666 318.076 80.5112 344.407 76.1227C365.471 72.612 376.708 122.533 377.683 146.913Z" fill="#FD683D"/>
</svg>
